<svg fill="#131b28" height="64" width="228" xmlns="http://www.w3.org/2000/svg"><path d="m64.902 25.006v-.003l-1.815 6.43 1.814-6.43zm9.333 13.962-2-.012zm-.515 9.605h.002l-11.98.044 11.98-.044zm2.512-9.593-2-.012zm-1.462 8.776 2.087-7.96zm44.112-36.653-3.888 18.277zm-9.994 0-2.95 13.653z"/><path d="m118.216 10.28h-8.313c-.46 0-.92.37-1.018.82l-5.903 27.3a1.09 1.09 0 0 1 -1.016.819h-5.886c-5.82 0-5.148-4.026-3.956-9.543l.036-.167.706-3.76.304-1.546 2.684-13.1c.093-.452-.2-.823-.67-.823h-8.534c-.46 0-.918.37-1.012.822l-3.668 17.398c-.003.013-.174.822-.174.822-2.113 9.648-1.553 18.85 9.933 19.137l.333.007h18.03a1.09 1.09 0 0 0 1.014-.822l7.776-36.552a.65.65 0 0 0 -.665-.822zm33.164 29.045c.462 0 .764.37.67.822l-.808 3.945m-.804 3.948.807-3.948-.808 3.95zm-1.012.83-15.32.074z"/><path d="m129.146 34.243c-.007-.432.485-1.176.947-1.176l-1.038-.017c-.468 4.705.1 1.194.1 1.194zm5.717 14.7-.16.001zm16.517-9.618c.462 0 .764.37.67.822l-.94 4.6m-12.3 4.197h-.034zm-2.052-.004h-.118zm-.623.002-.196.001zm-.633.001h-.172zm1.138-.003h-.504z"/><path d="m138.766 48.934-2.006.007zm10.664-.064-10.635.065zm1.008-.828.676-3.306-.677 3.308zm-14.498.9h-.44zm-1.24.002h-.593zm.628-.001h-.468zm-121.608-14.601 1.3-5.724-1.476 6.544-1.417 6.665 1.242-5.843.36-1.642zm15.457-24.158h-9.13a1.11 1.11 0 0 0 -1.026.818l-1.73 7.643a.64.64 0 0 0 .654.818h9.2a1.1 1.1 0 0 0 1.02-.82l1.673-7.64c.098-.45-.198-.82-.66-.82zm-1.977 12.711v-.001l-2.678 12.388zm-26.532 41.045 7.528.06a766.71 766.71 0 0 1 -7.532-.061zm15.635-41.047-1.303 5.725 1.293-5.724z"/><path d="m26.53 22.074h-9.202c-.46 0-.923.37-1.024.82l-2.584 11.45-.36 1.642-2.483 11.686a17.39 17.39 0 0 1 -.443 1.616s-1.72 5.115-4.6 5.057l-2.874-.045a1.1 1.1 0 0 0 -1.032.801l-1.908 8.009a.64.64 0 0 0 .641.826l7.532.06c7.22 0 11.024-4 13.463-15.5l5.544-25.596c.097-.45-.2-.82-.662-.82zm130.713 26.402a.65.65 0 0 1 -.664-.822l6.921-32.424"/><path d="m166.863 47.653 2.8-13.84zm-10.183.412c-.056-.226-.023-.78.075-1.232l3.285-15.4-3.46 16.2a.65.65 0 0 0 .663.822h.84c-.462 0-1.347-.185-1.403-.4z"/><path d="m166.317 48.3c-.25.102-.835.185-1.297.185h.84c.46 0 .915-.37 1.006-.823l.167-.822c-.092.452-.464 1.36-.716 1.46zm1.948-7.556 1.236-6.108z"/><path d="m195.578 17.403.38 1.575c.105.45-.186.817-.647.818m-28.281 27.034 1.232-6.097zm28.17-31.03.377 1.614zm-25.7 18.836.34-1.632 1.32-6.183-1.495 7.004-.165.812z"/><path d="m163.615 14.7-.287 1.352-3.285 15.4 3.572-16.742zm32.342 4.28-.38-1.575-.568-2.43c-.747-2.904-2.94-4.58-7.705-4.58l-7.417-.008-6.83-.008h-7.686a1.09 1.09 0 0 0 -1.013.82l-.853 4.034-6.746 31.602c-.098.452-.13 1.006-.075 1.232s.94.4 1.403.4h6.934c.462 0 1.046-.083 1.297-.185s.624-1.008.716-1.46l2.633-13.016 2.815-13.2a1.09 1.09 0 0 1 1.013-.818l21.817-.01c.46-.001.752-.367.647-.818zm28.086-14.247-1.68.006h-6.983a1.79 1.79 0 0 0 -1.314.693l-15.44 22.622c-.26.382-.558.325-.66-.124l-1.136-4.984a1.11 1.11 0 0 0 -1.026-.818h-9.927c-.462 0-.735.362-.6.806l4.448 15.583a3.68 3.68 0 0 1 .022 1.62l-1.94 7.542c-.115.448.17.814.63.814h9.8c.46 0 .933-.366 1.047-.814l1.94-7.542c.114-.447.436-1.115.714-1.484l25.062-33.273c.278-.37.128-.67-.334-.665l-2.63.017zm-78.867 19.517c-.06.492-.52.86-.982.86h-12.586c-.435 0-.656-.296-.592-.66.004-.01.005-.02.012-.03-.005-.01-.005-.024-.001-.038l.058-.214c1.202-3.196 3.65-5.293 8.252-5.293 5.18 0 6.192 2.53 5.84 5.377zm-3.692-14.527c-16.155 0-19.983 9.806-22.13 19.703-2.148 10.087-1.963 19.52 14.754 19.52h.593l.16-.001h1.08l.196-.001.622-.001 2.04-.007 10.636-.065a1.09 1.09 0 0 0 1.002-.825l1.616-7.897a.65.65 0 0 0 -.67-.822h-15.03c-5.977 0-7.752-1.6-7.098-6.258h24.024c.396-.007.75-.27.9-.62a.88.88 0 0 0 .058-.21c3.564-13.453 2.54-22.514-12.74-22.514zm-76.354 14.475-3.855 13.662a1.18 1.18 0 0 1 -1.068.808h-9.602c-7.283 0-9.057-5.696-7.283-14.098 1.773-8.594 5.25-13.936 12.418-14.477 9.796-.74 11.755 6.15 9.4 14.104zm6.585 13.977s4.527-11 5.555-17.34c1.4-8.5-2.854-20.825-19.29-20.825-16.342 0-23.44 11.768-26.147 24.56-2.708 12.885.84 24.186 17.1 24.093l24.8-.1a1.16 1.16 0 0 0 1.051-.816l2.087-7.96a.62.62 0 0 0 -.627-.817l-4-.024c-.393-.003-.617-.256-.57-.593a.79.79 0 0 1 .049-.188zm80.9-7.357a.55.55 0 1 1 -1.102 0 .55.55 0 1 1 1.102 0z"/></svg>